<svg xmlns="http://www.w3.org/2000/svg" width="97" height="100" viewBox="0 0 97 100" version="1.1">
	<path d="M 37.636 18.277 C 35.472 19.859, 33.720 26.958, 35.087 28.605 C 38.053 32.178, 51.925 32.501, 56.132 29.094 C 57.992 27.588, 58.082 27.020, 57.062 23.230 C 55.619 17.871, 53.091 16.384, 49.009 18.495 C 46.306 19.893, 45.700 19.896, 43.050 18.526 C 39.497 16.689, 39.790 16.702, 37.636 18.277 M 29.571 30.571 C 27.278 32.865, 27.633 34.603, 30.868 36.906 C 32.931 38.375, 33.923 40.115, 34.401 43.107 C 34.852 45.928, 36.149 48.349, 38.433 50.633 C 41.238 53.438, 42.536 54, 46.211 54 C 52.445 54, 56.653 49.638, 58.443 41.324 C 58.820 39.572, 60.247 37.413, 61.625 36.510 C 64.417 34.681, 64.537 31.354, 61.872 29.684 C 60.650 28.918, 59.571 29.192, 57.551 30.781 C 56.071 31.946, 52.811 33.206, 50.308 33.581 C 45.047 34.370, 35.729 32.583, 33.955 30.446 C 32.422 28.598, 31.519 28.624, 29.571 30.571 M 64.923 52.923 C 61.800 56.046, 60.991 61.246, 63.035 65.065 C 63.889 66.662, 63.462 67.605, 60.572 70.495 C 55.576 75.491, 54.657 77.514, 56.531 79.388 C 57.371 80.228, 58.696 80.670, 59.477 80.371 C 61.102 79.747, 65.320 74.387, 66.323 71.670 C 66.849 70.245, 67.639 69.981, 69.896 70.477 C 75.985 71.814, 83 66.206, 83 60 C 83 57.066, 80.350 52.258, 78.055 51.030 C 76.997 50.463, 74.267 50, 71.989 50 C 68.743 50, 67.213 50.633, 64.923 52.923 M 67 55 C 63.382 58.618, 64.887 65.246, 69.745 67.093 C 73.173 68.396, 77.363 66.694, 78.870 63.385 C 80.452 59.914, 80.298 58.649, 77.927 55.635 C 75.330 52.333, 69.978 52.022, 67 55 M 38.050 56.440 C 37.392 57.232, 33.674 59.128, 29.787 60.653 C 21.806 63.784, 20.748 65.292, 19.549 75.250 L 18.856 81 36.255 81 L 53.654 81 53.246 78.220 C 52.931 76.078, 53.732 74.432, 56.734 71.049 C 60.373 66.949, 60.567 66.421, 59.666 63.079 C 59.023 60.698, 57.523 58.725, 55.183 57.185 L 51.666 54.871 48.747 57.029 L 45.828 59.187 43.600 57.094 C 40.976 54.629, 39.680 54.476, 38.050 56.440 M 66.250 76.470 C 65.013 78.396, 64 80.203, 64 80.486 C 64 80.769, 66.052 81, 68.560 81 L 73.121 81 72.810 77.250 C 72.379 72.040, 69.329 71.678, 66.250 76.470" stroke="none" fill="#000000" fill-rule="evenodd"/>
</svg>